<?xml version="1.0" encoding="UTF-8" standalone="no"?>
<!-- Created with Inkscape (http://www.inkscape.org/) -->

<svg
   xmlns:dc="http://purl.org/dc/elements/1.1/"
   xmlns:cc="http://creativecommons.org/ns#"
   xmlns:rdf="http://www.w3.org/1999/02/22-rdf-syntax-ns#"
   xmlns:svg="http://www.w3.org/2000/svg"
   xmlns="http://www.w3.org/2000/svg"
   xmlns:xlink="http://www.w3.org/1999/xlink"
   xmlns:sodipodi="http://sodipodi.sourceforge.net/DTD/sodipodi-0.dtd"
   xmlns:inkscape="http://www.inkscape.org/namespaces/inkscape"
   width="643.35211"
   height="125.18543"
   id="svg2"
   version="1.1"
   inkscape:version="0.48.3.1 r9886"
   sodipodi:docname="logo2.svg"
   inkscape:export-filename="/home/zifle/Dropbox/www/mednet/utils/logo2.png"
   inkscape:export-xdpi="182.64"
   inkscape:export-ydpi="182.64">
  <defs
     id="defs4">
    <pattern
       inkscape:collect="always"
       xlink:href="#pattern3013"
       id="pattern3026"
       patternTransform="matrix(0.22364887,0,0,0.22364887,2.1933594e-5,-3.7841797e-6)" />
    <pattern
       inkscape:collect="always"
       xlink:href="#pattern3008"
       id="pattern3013"
       patternTransform="matrix(0.22364887,0,0,0.22364887,87.340415,201.507)" />
    <pattern
       patternUnits="userSpaceOnUse"
       width="554.64917"
       height="784.56024"
       patternTransform="translate(87.340393,201.507)"
       id="pattern3023">
      <rect
         id="rect3011"
         y="0"
         x="0"
         height="784.56024"
         width="554.64917"
         style="fill:url(#pattern3026);stroke:none" />
    </pattern>
  </defs>
  <sodipodi:namedview
     id="base"
     pagecolor="#ffffff"
     bordercolor="#666666"
     borderopacity="1.0"
     inkscape:pageopacity="0.0"
     inkscape:pageshadow="2"
     inkscape:zoom="5.3687552"
     inkscape:cx="581.12884"
     inkscape:cy="81.07595"
     inkscape:document-units="px"
     inkscape:current-layer="layer1"
     showgrid="false"
     inkscape:window-width="1024"
     inkscape:window-height="1256"
     inkscape:window-x="0"
     inkscape:window-y="24"
     inkscape:window-maximized="1"
     fit-margin-top="0"
     fit-margin-left="0"
     fit-margin-right="0"
     fit-margin-bottom="0" />
  <metadata
     id="metadata7">
    <rdf:RDF>
      <cc:Work
         rdf:about="">
        <dc:format>image/svg+xml</dc:format>
        <dc:type
           rdf:resource="http://purl.org/dc/dcmitype/StillImage" />
        <dc:title></dc:title>
      </cc:Work>
    </rdf:RDF>
  </metadata>
  <g
     inkscape:label="Layer 1"
     inkscape:groupmode="layer"
     id="layer1"
     transform="translate(-2.3648398,-3.2925601)">
    <text
       xml:space="preserve"
       style="font-size:40px;font-style:normal;font-weight:normal;line-height:125%;letter-spacing:0px;word-spacing:0px;fill:#333333;fill-opacity:1;stroke:none;font-family:Sans"
       x="-1.0101602"
       y="115.95078"
       id="text2993"
       sodipodi:linespacing="125%"><tspan
         sodipodi:role="line"
         id="tspan2995"
         x="-1.0101602"
         y="115.95078"
         style="font-size:144px;font-style:normal;font-variant:normal;font-weight:normal;font-stretch:normal;letter-spacing:0px;fill:#333333;fill-opacity:1;font-family:Georgia;-inkscape-font-specification:Georgia">MEDNE</tspan></text>
    <path
       style="fill:#333333;fill-opacity:1;stroke:#4085ff;stroke-width:0;stroke-linecap:round;stroke-miterlimit:4;stroke-opacity:1;stroke-dasharray:none"
       d="m 592.92073,121.55062 c -0.40301,-0.32967 -0.77141,-0.61224 -0.81864,-0.62793 -0.15556,-0.0518 -1.53556,-1.28336 -1.71091,-1.52708 -0.0511,-0.0706 -0.14234,-0.12833 -0.20367,-0.12833 -0.061,0 -0.14437,-0.0451 -0.18586,-0.0999 -0.0411,-0.0549 -0.32691,-0.39533 -0.63524,-0.75639 -0.30829,-0.36108 -0.65186,-0.79631 -0.7634,-0.9672 -0.11149,-0.17088 -0.25706,-0.33808 -0.32319,-0.37157 -0.13361,-0.0674 -0.43138,-0.57623 -0.82065,-1.40136 -0.22186,-0.46987 -0.26616,-0.92368 -0.33431,-3.39662 -0.0431,-1.56986 -0.11245,-3.34879 -0.15352,-3.95318 -0.061,-0.89437 -0.0415,-1.0989 0.10675,-1.0989 0.10006,0 0.48,0.12886 0.84439,0.28628 0.36436,0.15745 0.89286,0.34056 1.17435,0.40689 0.28145,0.0661 0.58966,0.18152 0.68474,0.25603 0.0952,0.0745 0.22362,0.13549 0.28612,0.13549 0.0622,0 0.11302,0.0284 0.11302,0.0631 0,0.0573 0.64305,0.43168 1.04456,0.608 0.22655,0.0993 1.17626,0.8954 1.4813,1.24125 0.1389,0.15698 0.29806,0.29905 0.35473,0.31573 0.0568,0.0168 0.27087,0.29926 0.47587,0.62797 l 0.37287,0.59761 -0.0455,3.22535 c -0.0234,1.77396 -0.0829,4.1116 -0.12833,5.19481 l -0.0829,1.96946 -0.73276,-0.59939 z"
       id="path3873"
       inkscape:connector-curvature="0" />
    <path
       style="fill:#337033;fill-opacity:1;stroke:#4085ff;stroke-width:0;stroke-linecap:round;stroke-miterlimit:4;stroke-opacity:1;stroke-dasharray:none"
       d="m 593.94153,123.89579 c -0.32077,-0.15851 -0.93333,-0.3772 -1.3902,-0.49632 -0.19061,-0.0497 -0.34641,-0.10464 -0.34641,-0.12215 0,-0.0469 -0.83424,-0.41394 -0.94056,-0.41394 -0.0814,0 -0.94723,-0.38524 -2.85186,-1.2689 -0.35479,-0.16457 -0.64503,-0.31999 -0.64503,-0.34537 0,-0.0253 -0.24417,-0.15802 -0.54285,-0.29477 -0.2986,-0.13676 -0.6049,-0.30323 -0.68073,-0.36994 -0.0758,-0.0668 -0.24442,-0.17297 -0.37464,-0.23613 -0.12997,-0.0631 -0.31273,-0.18083 -0.40549,-0.26152 -0.093,-0.0807 -0.20239,-0.14678 -0.24342,-0.1469 -0.0411,-1.4e-4 -0.26052,-0.14813 -0.48755,-0.32891 -0.22682,-0.18078 -0.57261,-0.42603 -0.76796,-0.54501 -0.31672,-0.19291 -0.72072,-0.5339 -1.30074,-1.09793 -0.10503,-0.10198 -0.21996,-0.19605 -0.25593,-0.20882 -0.0976,-0.0348 -0.40998,-0.33152 -0.4107,-0.38993 -3.6e-4,-0.028 -0.0626,-0.1041 -0.13803,-0.16918 -0.0753,-0.0651 -0.29534,-0.32607 -0.48846,-0.58002 -0.19326,-0.25394 -0.37884,-0.47215 -0.41264,-0.48492 -0.1027,-0.0387 -0.4963,-0.71413 -0.82451,-1.41525 -0.28351,-0.60571 -0.50739,-1.36544 -0.50848,-1.72571 -4.3e-4,-0.15801 -0.0472,-0.30018 -0.10429,-0.31595 -0.1265,-0.0352 -0.14115,-1.32244 -0.0141,-1.32244 0.0485,0 0.11794,-0.17469 0.15434,-0.3882 0.0794,-0.46567 0.31147,-1.04787 0.59386,-1.49106 0.22127,-0.34734 1.78123,-1.80203 2.07486,-1.93486 0.097,-0.0439 0.26621,-0.15894 0.37603,-0.2557 0.10992,-0.0967 0.29277,-0.21378 0.40655,-0.26005 0.20083,-0.0816 0.21906,-0.0804 0.62447,0.0463 0.22962,0.0719 0.46466,0.18273 0.52224,0.24654 0.17191,0.19011 0.27793,4.17335 0.16191,6.067 -0.0356,0.58325 -0.0222,0.98603 0.0337,0.98603 0.0517,0 0.12543,0.15135 0.16371,0.33636 0.10249,0.4962 0.4467,1.34561 0.73789,1.82132 0.41772,0.68238 0.49152,0.78542 0.61476,0.85842 0.0645,0.0383 0.22751,0.22621 0.36202,0.41761 0.13438,0.19141 0.27453,0.36889 0.31114,0.39442 0.0365,0.0255 0.19525,0.20823 0.35242,0.40601 0.15725,0.1978 0.3163,0.35962 0.35347,0.35962 0.0373,0 0.13118,0.0678 0.20905,0.15081 0.4471,0.47614 1.18478,1.1304 1.31053,1.16233 0.0804,0.0204 0.14608,0.0668 0.14608,0.10305 0,0.0361 0.0992,0.14481 0.2204,0.24129 0.12128,0.0965 0.38147,0.31115 0.57825,0.47703 0.19682,0.1659 0.42084,0.3242 0.49792,0.3518 0.0769,0.0276 0.18837,0.1007 0.24703,0.1624 0.0589,0.0618 0.16523,0.15313 0.23631,0.20313 0.62688,0.44096 0.85924,0.59658 1.26335,0.8461 0.25594,0.15807 0.46543,0.30122 0.46543,0.31814 0,0.037 0.64019,0.40938 0.7382,0.42939 0.0381,0.007 0.22239,0.12781 0.40949,0.2668 0.18749,0.139 0.37732,0.25273 0.42208,0.25273 0.0447,0 0.0817,0.0209 0.0817,0.0463 0,0.0881 -0.27628,0.046 -0.53375,-0.0812 l 0,0 z"
       id="path3871"
       inkscape:connector-curvature="0" />
    <path
       style="fill:#333333;fill-opacity:1;stroke:#4085ff;stroke-width:0;stroke-linecap:round;stroke-miterlimit:4;stroke-opacity:1;stroke-dasharray:none"
       d="m 590.40056,128.4006 c -0.0457,-0.0426 -0.17063,-0.0773 -0.27708,-0.0773 -0.42204,0 -1.10097,-0.48393 -1.62778,-1.16022 -0.13223,-0.17017 -0.2948,-0.34714 -0.35993,-0.3933 -0.12852,-0.0908 -0.46024,-0.93309 -0.70765,-1.79818 -0.0852,-0.29779 -0.15445,-0.95815 -0.15401,-1.46744 l 6e-4,-0.926 0.92054,0.333 c 0.50631,0.18315 1.06194,0.37068 1.23463,0.4167 0.17279,0.0459 0.65855,0.19686 1.07947,0.33517 0.42093,0.13831 0.948,0.29788 1.17125,0.35462 0.22351,0.0566 0.59416,0.16573 0.82417,0.24229 0.23004,0.0765 0.54276,0.15327 0.69483,0.17048 0.17084,0.0195 0.31185,0.0981 0.36869,0.20665 0.10442,0.19848 -0.19046,1.41526 -0.36234,1.49455 -0.0613,0.0285 -0.1896,0.22875 -0.28454,0.44509 -0.18765,0.42726 -0.91566,1.29399 -1.22786,1.46173 -0.21421,0.11509 -1.06627,0.43955 -1.15428,0.43955 -0.0311,0 -0.0932,-0.0348 -0.13891,-0.0773 l 0,0 z"
       id="path3869"
       inkscape:connector-curvature="0" />
    <path
       style="fill:#333333;fill-opacity:1;stroke:#4085ff;stroke-width:0;stroke-linecap:round;stroke-miterlimit:4;stroke-opacity:1;stroke-dasharray:none"
       d="m 590.65693,103.33639 c -2.73321,-0.8911 -2.97384,-1.09001 -3.38971,-2.80199 -0.24621,-1.013563 -0.34637,-3.093669 -0.22253,-4.622455 l 0.22497,-2.779632 3.39185,1.066857 3.3918,1.066833 0,4.514829 c 0,2.483118 -0.10237,4.514788 -0.22716,4.514788 -0.1251,0 -1.55115,-0.43165 -3.16922,-0.95923 z"
       id="path3867"
       inkscape:connector-curvature="0" />
    <path
       style="fill:#337033;fill-opacity:1;stroke:#4085ff;stroke-width:0;stroke-linecap:round;stroke-miterlimit:4;stroke-opacity:1;stroke-dasharray:none"
       d="m 596.09972,115.37308 c 0.14302,-3.93446 0.12035,-4.02885 -1.32564,-5.51833 -1.21504,-1.25145 -2.34509,-1.86584 -6.4875,-3.5272 -8.85697,-3.55219 -11.4993,-5.44139 -11.48716,-8.212988 0.006,-1.78749 1.19044,-3.14769 4.18634,-4.81512 2.17808,-1.21223 2.35127,-1.25618 3.71191,-0.94219 1.24527,0.28737 1.42725,0.47812 1.42725,1.49615 0,0.84895 -0.33961,1.37092 -1.24675,1.91615 -0.68572,0.41215 -1.64683,1.2792 -2.1358,1.92678 -0.86789,1.14927 -0.86121,1.20654 0.27687,2.395588 0.84094,0.87856 2.4853,1.76409 5.8986,3.17641 2.6029,1.07704 5.62463,2.38623 6.71495,2.90932 5.557,2.66604 6.46778,7.02943 2.41158,11.55382 -0.81092,0.90451 -1.61297,1.64454 -1.78235,1.64454 -0.16945,0 -0.24243,-1.80132 -0.16251,-4.00293 z"
       id="path3865"
       inkscape:connector-curvature="0" />
    <path
       style="fill:#337033;fill-opacity:1;stroke:#4085ff;stroke-width:0;stroke-linecap:round;stroke-miterlimit:4;stroke-opacity:1;stroke-dasharray:none"
       d="m 595.63573,104.88914 c -1.03676,-0.60552 -0.64916,-2.37974 0.73585,-3.36806 2.47997,-1.769698 2.84247,-2.687548 1.69492,-4.291648 -0.98304,-1.37415 -5.36951,-3.70624 -10.29899,-5.4755 -14.75739,-5.29664 -18.66078,-11.77316 -10.10681,-16.76917 1.20676,-0.70482 2.46085,-1.28147 2.78689,-1.28147 0.32603,0 1.63096,0.25199 2.89983,0.55997 1.82953,0.44407 2.30702,0.68489 2.30702,1.1635 0,0.36737 -0.34211,0.66695 -0.87429,0.7656 -0.48088,0.0891 -1.87809,0.80357 -3.10497,1.5876 -5.95741,3.80708 -2.06646,7.78869 12.74298,13.03997 3.66861,1.30085 6.85646,3.20362 8.20564,4.8978 2.05694,2.58296 0.63218,5.406918 -4.10709,8.140548 -1.82795,1.05437 -2.45598,1.27908 -2.88098,1.03086 l 0,0 z"
       id="path3863"
       inkscape:connector-curvature="0" />
    <path
       style="fill:#333333;fill-opacity:1;stroke:#4085ff;stroke-width:0;stroke-linecap:round;stroke-miterlimit:4;stroke-opacity:1;stroke-dasharray:none"
       d="m 590.63745,88.424451 -3.73188,-1.06062 -0.4167,-6.249564 c -0.22936,-3.437241 -0.26264,-6.306458 -0.0745,-6.376002 0.18858,-0.06952 2.19985,0.231878 4.4701,0.669884 l 4.12772,0.796345 -0.12763,6.644012 c -0.0702,3.654199 -0.21492,6.642335 -0.32124,6.640293 -0.10695,-0.0021 -1.87322,-0.481011 -3.92577,-1.064346 z"
       id="path3861"
       inkscape:connector-curvature="0" />
    <path
       style="fill:#333333;fill-opacity:1;stroke:#4085ff;stroke-width:0;stroke-linecap:round;stroke-miterlimit:4;stroke-opacity:1;stroke-dasharray:none"
       d="m 590.62627,69.900081 c -1.91711,-0.391172 -3.67909,-0.807679 -3.91553,-0.925618 -0.23639,-0.11796 -0.53739,-3.032495 -0.66883,-6.476787 l -0.23894,-6.262385 4.74294,0.249383 4.743,0.249385 -0.0504,6.973132 c -0.028,3.835203 -0.29257,6.957615 -0.58847,6.938682 -0.29594,-0.01793 -2.10657,-0.354459 -4.02366,-0.745619 z"
       id="path3859"
       inkscape:connector-curvature="0" />
    <path
       style="fill:#337033;fill-opacity:1;stroke:#4085ff;stroke-width:0;stroke-linecap:round;stroke-miterlimit:4;stroke-opacity:1;stroke-dasharray:none"
       d="m 596.55289,89.919602 c -0.80794,-0.22756 -1.00915,-0.50105 -1.0009,-1.3603 0.008,-0.95681 0.28895,-1.2347 2.53635,-2.51912 2.65045,-1.5148 4.63223,-3.56457 4.63968,-4.79883 0.0172,-2.8322 -4.97962,-5.37912 -14.50303,-7.39256 -16.05964,-3.39532 -24.59829,-7.43068 -25.38625,-11.99748 -0.25826,-1.49656 1.20104,-3.5399 3.57991,-5.0128 1.8153,-1.12397 1.53882,-1.10778 8.57824,-0.5023 5.1118,0.4397 5.24313,0.46697 3.75902,0.78042 -2.08291,0.43989 -5.66925,2.32585 -6.42092,3.37657 -1.78556,2.49592 0.40778,5.11002 5.904,7.03664 0.9887,0.3466 5.61279,1.51974 10.27568,2.60698 9.56697,2.23074 11.70878,2.89438 14.81078,4.58903 5.30021,2.8956 6.3372,6.22858 3.10916,9.99301 -1.14585,1.33617 -7.6438,5.54412 -8.49833,5.50333 -0.20472,-0.01 -0.82724,-0.14594 -1.38339,-0.30259 z"
       id="path3857"
       inkscape:connector-curvature="0" />
    <path
       style="fill:#337033;fill-opacity:1;stroke:#4085ff;stroke-width:0;stroke-linecap:round;stroke-miterlimit:4;stroke-opacity:1;stroke-dasharray:none"
       d="m 606.47689,53.410242 c -1.13641,-0.44585 -3.3754,-1.12762 -4.97549,-1.51503 l -2.90932,-0.7044 2.90932,-0.18526 c 11.63694,-0.74102 21.88082,-3.78096 21.88082,-6.4933 0,-0.36392 -0.34277,-0.96615 -0.76173,-1.33829 -1.01222,-0.89913 -3.21809,-1.11476 -7.73581,-0.75619 -2.81111,0.22311 -4.07405,0.47221 -6.16021,1.21506 -2.02372,0.72061 -3.07532,0.93408 -4.59601,0.93295 -2.36961,-0.002 -4.4403,-0.37309 -5.53534,-0.99264 -0.70566,-0.39924 -0.75341,-0.55373 -0.38334,-1.24027 0.50061,-0.928808 2.77885,-2.643318 4.20995,-3.168238 1.32234,-0.48503 5.23416,-0.47718 11.81656,0.0237 5.4609,0.41554 9.25849,1.07312 11.30951,1.95834 1.45377,0.627438 2.72007,1.980198 2.71053,2.895598 -0.0258,2.46567 -5.30473,6.08592 -11.96037,8.20226 -2.08642,0.66341 -7.63095,2.10292 -7.72475,2.00554 -0.0159,-0.016 -0.95791,-0.39397 -2.09432,-0.83983 z"
       id="path3855"
       inkscape:connector-curvature="0" />
    <path
       style="fill:#337033;fill-opacity:1;stroke:#4085ff;stroke-width:0;stroke-linecap:round;stroke-miterlimit:4;stroke-opacity:1;stroke-dasharray:none"
       d="m 599.12232,71.061582 c -1.1594,-0.43674 -2.06809,-0.95653 -2.06809,-1.18301 0,-0.23979 0.84044,-0.67385 2.06809,-1.06804 3.85597,-1.23817 4.38632,-1.45934 6.02773,-2.51376 2.02562,-1.30125 2.69471,-2.21322 2.69299,-3.67052 -0.002,-2.48689 -3.15362,-4.66794 -8.63079,-5.9747 -1.6474,-0.39305 -4.35612,-0.67138 -9.17162,-0.94245 -11.59103,-0.65246 -16.88837,-1.47506 -22.81337,-3.54259 -10.09676,-3.52328 -14.05597,-8.39308 -8.89352,-10.939008 1.98733,-0.98006 5.29598,-1.59621 10.99517,-2.04755 7.22811,-0.57242 10.5882,-0.47082 12.20151,0.36892 1.54535,0.80437 3.29498,2.568178 3.29498,3.321678 0,0.7995 -2.00482,1.46462 -4.93143,1.63606 -2.09047,0.12246 -2.53789,0.049 -5.15342,-0.84681 -3.16595,-1.08425 -7.0703,-1.59832 -10.35436,-1.3633 -2.70817,0.19379 -3.6588,0.71192 -3.6588,1.99417 0,1.4125 1.17769,2.34595 4.58272,3.63233 5.24126,1.98011 10.97507,2.87334 20.5943,3.20827 18.265,0.63596 29.21878,4.53978 29.23289,10.41831 0.005,2.65714 -3.07639,5.77228 -8.01228,8.09644 -2.50703,1.18048 -5.18811,2.22778 -5.65047,2.20724 -0.15625,-0.006 -1.21474,-0.3632 -2.35223,-0.79168 z"
       id="path3853"
       inkscape:connector-curvature="0" />
    <path
       style="fill:#333333;fill-opacity:1;stroke:#4085ff;stroke-width:0;stroke-linecap:round;stroke-miterlimit:4;stroke-opacity:1;stroke-dasharray:none"
       d="m 577.81879,32.998722 c -0.36092,-0.149226 -1.09465,-0.698025 -1.63053,-1.219538 l -0.9743,-0.948212 -1.78181,0.819152 c -2.35539,1.082844 -3.6897,1.285855 -4.77218,0.726078 -0.46115,-0.238464 -0.97041,-0.723186 -1.13168,-1.077166 -0.34092,-0.748202 -0.70691,-0.78574 -2.46403,-0.252701 -2.61813,0.79424 -4.48168,0.275068 -5.38776,-1.500996 -0.4712,-0.923618 -0.607,-1.018143 -1.23373,-0.858711 -3.54114,0.900858 -5.81358,0.300949 -5.82675,-1.53821 -0.007,-1.153646 -0.33046,-1.316146 -1.86944,-0.94285 -3.04733,0.739162 -6.26363,0.268488 -6.26363,-0.916617 0,-0.497771 -0.21471,-0.617972 -1.54621,-0.865588 -2.12213,-0.394651 -4.15256,-1.408245 -5.60082,-2.795928 -1.53896,-1.474574 -2.19824,-2.67069 -1.76188,-3.196481 0.44166,-0.532164 1.20372,-0.469068 3.53799,0.292919 6.16187,2.011427 12.24084,0.663492 23.61376,-5.236071 7.69325,-3.990776 9.57054,-4.502491 11.77611,-3.20995 1.71868,1.007219 2.97838,2.60457 4.27101,5.415842 2.22832,4.846235 2.84222,5.512226 5.08106,5.512226 l 1.23278,0 0.17111,3.740437 c 0.094,2.057242 0.17156,4.414486 0.17208,5.238317 l 7.8e-4,1.497881 -2.03427,0.641548 c -2.4512,0.773029 -4.68611,1.043338 -5.57784,0.674619 l -1e-4,0 z"
       id="path3851"
       inkscape:connector-curvature="0" />
    <path
       style="fill:#333333;fill-opacity:1;stroke:#4085ff;stroke-width:0;stroke-linecap:round;stroke-miterlimit:4;stroke-opacity:1;stroke-dasharray:none"
       d="m 590.33493,50.150022 c -0.77351,-0.0561 -3.45776,0.08929 -3.57465,-0.01835 -0.11693,-0.10769 -0.34689,-9.037338 -0.51115,-19.843758 l -0.29865,-10.334913 -0.0649,-0.955299 c 0,0 -4.54179,-2.151395 -4.54965,-6.148601 0.1134,-6.6178832 6.28033,-9.6120252 9.33018,-9.5557631 3.39112,0.062557 9.46563,2.8637683 9.56519,9.2597551 -0.15101,5.346832 -4.74911,6.623754 -4.74911,6.623754 l 0.0976,0.878478 -0.21222,5.442325 c -0.31625,8.110178 -0.24572,17.057252 -0.28664,19.870552 -0.0629,4.32813 -0.13933,5.11881 -0.49632,5.13919 -0.23206,0.0131 -3.47619,-0.301194 -4.24968,-0.357394 l 0,0 z"
       id="path3849"
       inkscape:connector-curvature="0"
       sodipodi:nodetypes="ccscccscccsccccc" />
    <path
       style="fill:#333333;fill-opacity:1;stroke:#4085ff;stroke-width:0;stroke-linecap:round;stroke-miterlimit:4;stroke-opacity:1;stroke-dasharray:none"
       d="m 599.67684,32.678924 c -0.8662,-0.20426 -2.07692,-0.558547 -2.69048,-0.7873 l -1.11557,-0.415913 0,-5.228023 0,-5.228031 1.20714,0 c 1.43646,0 2.80483,-0.592961 3.37441,-1.462247 0.22687,-0.346262 0.88894,-1.712255 1.47126,-3.035547 1.46089,-3.319748 2.63053,-4.984162 4.32043,-6.148041 2.49361,-1.7174059 3.39408,-1.4835449 13.38182,3.475388 11.18482,5.553282 16.10276,6.580643 22.42327,4.684226 2.5454,-0.763732 3.386,-0.825629 3.60105,-0.265181 0.69097,1.800634 -4.12507,5.603401 -7.65501,6.044443 -1.15888,0.144791 -1.35634,0.247074 -1.25142,0.648286 0.16428,0.628212 -0.7707,1.205691 -2.28738,1.412789 -1.06692,0.145683 -2.48949,-0.0035 -4.92163,-0.515358 -0.81231,-0.171031 -0.85308,-0.142092 -0.85308,0.605258 0,0.431677 -0.24162,1.092031 -0.53692,1.467444 -0.79919,1.015998 -2.00695,1.25221 -4.11834,0.805442 -1.74863,-0.370003 -1.78167,-0.366729 -2.16941,0.215151 -1.5281,2.293268 -2.71245,2.687084 -5.72848,1.90483 l -1.80299,-0.46764 -0.93885,1.024468 c -0.84458,0.921595 -1.06609,1.024075 -2.20585,1.020554 -0.88275,-0.0029 -1.84224,-0.272363 -3.16392,-0.889131 l -1.89693,-0.885221 -1.06976,0.966468 c -1.73403,1.5666 -2.53191,1.722942 -5.37336,1.052886 z"
       id="path3103"
       inkscape:connector-curvature="0" />
  </g>
</svg>
