<?xml version="1.0" encoding="UTF-8" standalone="no"?>
<!-- Created with Inkscape (http://www.inkscape.org/) -->

<svg
   xmlns:dc="http://purl.org/dc/elements/1.1/"
   xmlns:cc="http://creativecommons.org/ns#"
   xmlns:rdf="http://www.w3.org/1999/02/22-rdf-syntax-ns#"
   xmlns:svg="http://www.w3.org/2000/svg"
   xmlns="http://www.w3.org/2000/svg"
   xmlns:xlink="http://www.w3.org/1999/xlink"
   xmlns:sodipodi="http://sodipodi.sourceforge.net/DTD/sodipodi-0.dtd"
   xmlns:inkscape="http://www.inkscape.org/namespaces/inkscape"
   width="639.99939"
   height="127.09412"
   id="svg2"
   version="1.1"
   inkscape:version="0.48.3.1 r9886"
   sodipodi:docname="logo.svg"
   inkscape:export-filename="/home/zifle/Dropbox/www/mednet/utils/logo.png"
   inkscape:export-xdpi="182.64"
   inkscape:export-ydpi="182.64">
  <defs
     id="defs4">
    <pattern
       inkscape:collect="always"
       xlink:href="#pattern3013"
       id="pattern3026"
       patternTransform="matrix(0.22364887,0,0,0.22364887,2.1933594e-5,-3.7841797e-6)" />
    <pattern
       inkscape:collect="always"
       xlink:href="#pattern3008"
       id="pattern3013"
       patternTransform="matrix(0.22364887,0,0,0.22364887,87.340415,201.507)" />
    <pattern
       patternUnits="userSpaceOnUse"
       width="554.64917"
       height="784.56024"
       patternTransform="translate(87.340393,201.507)"
       id="pattern3023">
      <rect
         id="rect3011"
         y="0"
         x="0"
         height="784.56024"
         width="554.64917"
         style="fill:url(#pattern3026);stroke:none" />
    </pattern>
  </defs>
  <sodipodi:namedview
     id="base"
     pagecolor="#ffffff"
     bordercolor="#666666"
     borderopacity="1.0"
     inkscape:pageopacity="0.0"
     inkscape:pageshadow="2"
     inkscape:zoom="5.3687552"
     inkscape:cx="590.13344"
     inkscape:cy="68.27587"
     inkscape:document-units="px"
     inkscape:current-layer="layer1"
     showgrid="false"
     inkscape:window-width="1024"
     inkscape:window-height="1256"
     inkscape:window-x="0"
     inkscape:window-y="24"
     inkscape:window-maximized="1"
     fit-margin-top="0"
     fit-margin-left="0"
     fit-margin-right="0"
     fit-margin-bottom="0" />
  <metadata
     id="metadata7">
    <rdf:RDF>
      <cc:Work
         rdf:about="">
        <dc:format>image/svg+xml</dc:format>
        <dc:type
           rdf:resource="http://purl.org/dc/dcmitype/StillImage" />
        <dc:title></dc:title>
      </cc:Work>
    </rdf:RDF>
  </metadata>
  <g
     inkscape:label="Layer 1"
     inkscape:groupmode="layer"
     id="layer1"
     transform="translate(-2.3648398,-1.3838257)">
    <text
       xml:space="preserve"
       style="font-size:40px;font-style:normal;font-weight:normal;line-height:125%;letter-spacing:0px;word-spacing:0px;fill:#333333;fill-opacity:1;stroke:none;font-family:Sans"
       x="-1.0101602"
       y="115.95078"
       id="text2993"
       sodipodi:linespacing="125%"><tspan
         sodipodi:role="line"
         id="tspan2995"
         x="-1.0101602"
         y="115.95078"
         style="font-size:144px;font-style:normal;font-variant:normal;font-weight:normal;font-stretch:normal;letter-spacing:0px;font-family:Georgia;-inkscape-font-specification:Georgia;fill:#333333;fill-opacity:1">MEDNE</tspan></text>
    <path
       style="fill:#333333;fill-opacity:1;stroke:#4085ff;stroke-width:0;stroke-linecap:round;stroke-miterlimit:4;stroke-opacity:1;stroke-dasharray:none"
       d="m 589.66731,119.98647 c -0.13732,-0.26797 -0.26285,-0.49766 -0.27895,-0.51041 -0.053,-0.0421 -0.52323,-1.04317 -0.58298,-1.24127 -0.0174,-0.0574 -0.0485,-0.10431 -0.0694,-0.10431 -0.0208,0 -0.0492,-0.0366 -0.0633,-0.0812 -0.014,-0.0446 -0.1114,-0.32134 -0.21646,-0.61482 -0.10505,-0.2935 -0.22212,-0.64727 -0.26012,-0.78618 -0.038,-0.1389 -0.0876,-0.2748 -0.11013,-0.30202 -0.0455,-0.0548 -0.14699,-0.46838 -0.27963,-1.13908 -0.0756,-0.38193 -0.0907,-0.75081 -0.11392,-2.7609 -0.0147,-1.27605 -0.0383,-2.72203 -0.0523,-3.2133 -0.0208,-0.72698 -0.0141,-0.89323 0.0364,-0.89323 0.0341,0 0.16356,0.10474 0.28772,0.2327 0.12416,0.12798 0.30424,0.27682 0.40016,0.33073 0.0959,0.0538 0.20092,0.14755 0.23332,0.20812 0.0324,0.0605 0.0762,0.11012 0.0975,0.11012 0.0212,0 0.0385,0.0231 0.0385,0.0513 0,0.0466 0.21912,0.35088 0.35593,0.4942 0.0772,0.0807 0.40081,0.72782 0.50475,1.00893 0.0473,0.1276 0.10156,0.24309 0.12087,0.25665 0.0193,0.0136 0.0923,0.24324 0.16215,0.51043 l 0.12706,0.48576 -0.0155,2.62169 c -0.008,1.44194 -0.0282,3.34207 -0.0437,4.22254 l -0.0283,1.60085 -0.24968,-0.48721 z"
       id="path3873" />
    <path
       style="fill:#337033;fill-opacity:1;stroke:#4085ff;stroke-width:0;stroke-linecap:round;stroke-miterlimit:4;stroke-opacity:1;stroke-dasharray:none"
       d="m 590.53543,123.89579 c -0.14423,-0.15851 -0.41966,-0.3772 -0.62509,-0.49632 -0.0857,-0.0497 -0.15576,-0.10464 -0.15576,-0.12215 0,-0.0469 -0.37511,-0.41394 -0.42292,-0.41394 -0.0366,0 -0.42591,-0.38524 -1.28232,-1.2689 -0.15951,-0.16457 -0.29002,-0.31999 -0.29002,-0.34537 0,-0.0253 -0.10979,-0.15802 -0.24409,-0.29477 -0.13426,-0.13676 -0.27199,-0.30323 -0.30608,-0.36994 -0.0341,-0.0668 -0.1099,-0.17297 -0.16846,-0.23613 -0.0585,-0.0631 -0.14062,-0.18083 -0.18232,-0.26152 -0.0418,-0.0807 -0.091,-0.14678 -0.10946,-0.1469 -0.0184,-1.4e-4 -0.11714,-0.14813 -0.21922,-0.32891 -0.10199,-0.18078 -0.25747,-0.42603 -0.3453,-0.54501 -0.14242,-0.19291 -0.32408,-0.5339 -0.58487,-1.09793 -0.0472,-0.10198 -0.0989,-0.19605 -0.11507,-0.20882 -0.0439,-0.0348 -0.18435,-0.33152 -0.18468,-0.38993 -1.6e-4,-0.028 -0.0281,-0.1041 -0.0621,-0.16918 -0.0339,-0.0651 -0.1328,-0.32607 -0.21963,-0.58002 -0.0869,-0.25394 -0.17034,-0.47215 -0.18554,-0.48492 -0.0462,-0.0387 -0.22316,-0.71413 -0.37074,-1.41525 -0.12748,-0.60571 -0.22814,-1.36544 -0.22863,-1.72571 -1.9e-4,-0.15801 -0.0212,-0.30018 -0.0469,-0.31595 -0.0569,-0.0352 -0.0635,-1.32244 -0.006,-1.32244 0.0218,0 0.053,-0.17469 0.0694,-0.3882 0.0357,-0.46567 0.14005,-1.04787 0.26702,-1.49106 0.0995,-0.34734 0.80092,-1.80203 0.93295,-1.93486 0.0436,-0.0439 0.1197,-0.15894 0.16908,-0.2557 0.0494,-0.0967 0.13164,-0.21378 0.1828,-0.26005 0.0903,-0.0816 0.0985,-0.0804 0.28079,0.0463 0.10325,0.0719 0.20893,0.18273 0.23482,0.24654 0.0773,0.19011 0.12497,4.17335 0.0728,6.067 -0.016,0.58325 -0.01,0.98603 0.0152,0.98603 0.0232,0 0.0564,0.15135 0.0736,0.33636 0.0461,0.4962 0.20086,1.34561 0.33179,1.82132 0.18782,0.68238 0.22101,0.78542 0.27642,0.85842 0.029,0.0383 0.1023,0.22621 0.16278,0.41761 0.0604,0.19141 0.12344,0.36889 0.1399,0.39442 0.0164,0.0255 0.0878,0.20823 0.15847,0.40601 0.0707,0.1978 0.14222,0.35962 0.15893,0.35962 0.0168,0 0.059,0.0678 0.094,0.15081 0.20103,0.47614 0.53273,1.1304 0.58927,1.16233 0.0362,0.0204 0.0657,0.0668 0.0657,0.10305 0,0.0361 0.0446,0.14481 0.0991,0.24129 0.0545,0.0965 0.17152,0.31115 0.26,0.47703 0.0885,0.1659 0.18923,0.3242 0.22389,0.3518 0.0346,0.0276 0.0847,0.1007 0.11107,0.1624 0.0265,0.0618 0.0743,0.15313 0.10625,0.20313 0.28188,0.44096 0.38635,0.59658 0.56806,0.8461 0.11509,0.15807 0.20928,0.30122 0.20928,0.31814 0,0.037 0.28785,0.40938 0.33192,0.42939 0.0171,0.007 0.1,0.12781 0.18413,0.2668 0.0843,0.139 0.16965,0.25273 0.18978,0.25273 0.0201,0 0.0367,0.0209 0.0367,0.0463 0,0.0881 -0.12422,0.046 -0.23999,-0.0812 l 0,0 z"
       id="path3871" />
    <path
       style="fill:#333333;fill-opacity:1;stroke:#4085ff;stroke-width:0;stroke-linecap:round;stroke-miterlimit:4;stroke-opacity:1;stroke-dasharray:none"
       d="m 588.80978,128.40834 c -0.0147,-0.0383 -0.0548,-0.0696 -0.089,-0.0696 -0.13557,0 -0.35366,-0.43548 -0.52288,-1.04405 -0.0425,-0.15313 -0.0947,-0.31238 -0.11562,-0.35392 -0.0413,-0.0817 -0.14784,-0.83966 -0.22731,-1.61813 -0.0274,-0.26797 -0.0496,-0.86221 -0.0495,-1.3205 l 1.9e-4,-0.83328 0.2957,0.29965 c 0.16264,0.16482 0.34112,0.33356 0.39659,0.37498 0.0555,0.0413 0.21154,0.17715 0.34675,0.30161 0.13521,0.12446 0.30452,0.26805 0.37623,0.31911 0.0718,0.051 0.19086,0.14914 0.26474,0.21803 0.0739,0.0688 0.17435,0.13792 0.2232,0.15341 0.0549,0.0175 0.10017,0.0883 0.11843,0.18596 0.0335,0.1786 -0.0612,1.27355 -0.11639,1.3449 -0.0197,0.0256 -0.0609,0.20585 -0.0914,0.40052 -0.0603,0.38449 -0.29413,1.16443 -0.39442,1.31537 -0.0688,0.10357 -0.34251,0.39554 -0.37078,0.39554 -0.01,0 -0.0299,-0.0313 -0.0446,-0.0696 l 0,0 z"
       id="path3869" />
    <path
       style="fill:#333333;fill-opacity:1;stroke:#4085ff;stroke-width:0;stroke-linecap:round;stroke-miterlimit:4;stroke-opacity:1;stroke-dasharray:none"
       d="m 588.90718,102.53312 c -1.00471,-0.77216 -1.09316,-0.94451 -1.24603,-2.42798 -0.0905,-0.878268 -0.12732,-2.680718 -0.0818,-4.005438 l 0.0827,-2.4086 1.24681,0.92445 1.2468,0.92443 0,3.91218 c 0,2.151668 -0.0376,3.912148 -0.0835,3.912148 -0.046,0 -0.57019,-0.37403 -1.16498,-0.83119 z"
       id="path3867" />
    <path
       style="fill:#337033;fill-opacity:1;stroke:#4085ff;stroke-width:0;stroke-linecap:round;stroke-miterlimit:4;stroke-opacity:1;stroke-dasharray:none"
       d="m 591.26318,115.37308 c 0.0724,-3.93446 0.0609,-4.02885 -0.67045,-5.51833 -0.61451,-1.25145 -1.18604,-1.86584 -3.28109,-3.5272 -4.47947,-3.55219 -5.81585,-5.44139 -5.80971,-8.212988 0.004,-1.78749 0.60207,-3.14769 2.11728,-4.81512 1.10157,-1.21223 1.18916,-1.25618 1.87732,-0.94219 0.6298,0.28737 0.72184,0.47812 0.72184,1.49615 0,0.84895 -0.17177,1.37092 -0.63056,1.91615 -0.3468,0.41215 -0.8329,1.2792 -1.08019,1.92678 -0.43894,1.14927 -0.43557,1.20654 0.14003,2.395588 0.42531,0.87856 1.25696,1.76409 2.98325,3.17641 1.31643,1.07704 2.8447,2.38623 3.39613,2.90932 2.81049,2.66604 3.27112,7.02943 1.21967,11.55382 -0.41013,0.90451 -0.81576,1.64454 -0.90143,1.64454 -0.0857,0 -0.12262,-1.80132 -0.0822,-4.00293 z"
       id="path3865" />
    <path
       style="fill:#337033;fill-opacity:1;stroke:#4085ff;stroke-width:0;stroke-linecap:round;stroke-miterlimit:4;stroke-opacity:1;stroke-dasharray:none"
       d="m 591.7855,104.88914 c -0.60552,-0.60552 -0.37914,-2.37974 0.42978,-3.36806 1.44844,-1.769698 1.66016,-2.687548 0.98993,-4.291648 -0.57416,-1.37415 -3.1361,-3.70624 -6.0152,-5.4755 -8.61913,-5.29664 -10.89893,-11.77316 -5.90294,-16.76917 0.70481,-0.70482 1.43728,-1.28147 1.62771,-1.28147 0.19042,0 0.95257,0.25199 1.69366,0.55997 1.06855,0.44407 1.34743,0.68489 1.34743,1.1635 0,0.36737 -0.19982,0.66695 -0.51064,0.7656 -0.28086,0.0891 -1.09691,0.80357 -1.81348,1.5876 -3.47946,3.80708 -1.20692,7.78869 7.44262,13.03997 2.14267,1.30085 4.00456,3.20362 4.79255,4.8978 1.20137,2.58296 0.36923,5.406918 -2.39877,8.140548 -1.06763,1.05437 -1.43443,1.27908 -1.68265,1.03086 l 0,0 z"
       id="path3863" />
    <path
       style="fill:#333333;fill-opacity:1;stroke:#4085ff;stroke-width:0;stroke-linecap:round;stroke-miterlimit:4;stroke-opacity:1;stroke-dasharray:none"
       d="m 588.94285,87.764622 -1.33705,-0.90043 -0.19127,-5.68298 c -0.10526,-3.12562 -0.13676,-5.73748 -0.0702,-5.80409 0.0667,-0.0666 0.78547,0.17265 1.59744,0.53175 l 1.4763,0.65288 0,6.05165 c 0,3.3284 -0.0311,6.05165 -0.069,6.05165 -0.0381,0 -0.67079,-0.4052 -1.40617,-0.90043 z"
       id="path3861" />
    <path
       style="fill:#333333;fill-opacity:1;stroke:#4085ff;stroke-width:0;stroke-linecap:round;stroke-miterlimit:4;stroke-opacity:1;stroke-dasharray:none"
       d="m 588.97445,69.208342 c -0.72184,-0.29098 -1.386,-0.60935 -1.47592,-0.70753 -0.0899,-0.0982 -0.23974,-2.69398 -0.33297,-5.76844 l -0.16949,-5.58996 1.77665,0.0778 1.77666,0.0778 0.0704,6.23407 c 0.0386,3.42873 -0.0204,6.22761 -0.13124,6.21974 -0.11088,-0.007 -0.79221,-0.25237 -1.51404,-0.54334 z"
       id="path3859" />
    <path
       style="fill:#337033;fill-opacity:1;stroke:#4085ff;stroke-width:0;stroke-linecap:round;stroke-miterlimit:4;stroke-opacity:1;stroke-dasharray:none"
       d="m 592.32117,89.919602 c -0.47188,-0.22756 -0.5894,-0.50105 -0.58458,-1.3603 0.005,-0.95681 0.16876,-1.2347 1.48137,-2.51912 1.54801,-1.5148 2.70549,-3.56457 2.70983,-4.79883 0.01,-2.8322 -2.90837,-5.37912 -8.47058,-7.39256 -9.37973,-3.39532 -14.36678,-7.43068 -14.827,-11.99748 -0.15082,-1.49656 0.70147,-3.5399 2.09087,-5.0128 1.06025,-1.12397 0.89876,-1.10778 5.01018,-0.5023 2.98558,0.4397 3.06228,0.46697 2.19547,0.78042 -1.21653,0.43989 -3.31115,2.32585 -3.75017,3.37657 -1.04287,2.49592 0.23816,5.11002 3.44826,7.03664 0.57747,0.3466 3.27819,1.51974 6.00158,2.60698 5.58765,2.23074 6.83859,2.89438 8.65032,4.58903 3.09563,2.8956 3.70129,6.22858 1.81592,9.99301 -0.66922,1.33617 -4.46439,5.54412 -4.96348,5.50333 -0.11959,-0.01 -0.48317,-0.14594 -0.80799,-0.30259 z"
       id="path3857" />
    <path
       style="fill:#337033;fill-opacity:1;stroke:#4085ff;stroke-width:0;stroke-linecap:round;stroke-miterlimit:4;stroke-opacity:1;stroke-dasharray:none"
       d="m 600.65512,53.410242 c -0.79402,-0.44585 -2.35842,-1.12762 -3.47642,-1.51503 l -2.03276,-0.7044 2.03276,-0.18526 c 8.13083,-0.74102 15.28833,-3.78096 15.28833,-6.4933 0,-0.36392 -0.23951,-0.96615 -0.53224,-1.33829 -0.70725,-0.89913 -2.24851,-1.11476 -5.40507,-0.75619 -1.96416,0.22311 -2.84657,0.47221 -4.3042,1.21506 -1.41398,0.72061 -2.14875,0.93408 -3.21126,0.93295 -1.65567,-0.002 -3.10248,-0.37309 -3.86759,-0.99264 -0.49305,-0.39924 -0.52642,-0.55373 -0.26785,-1.24027 0.34978,-0.928808 1.94161,-2.643318 2.94153,-3.168238 0.92393,-0.48503 3.65715,-0.47718 8.25633,0.0237 3.81558,0.41554 6.46898,1.07312 7.90205,1.95834 1.01576,0.627438 1.90054,1.980198 1.89388,2.895598 -0.018,2.46567 -3.70646,6.08592 -8.35682,8.20226 -1.4578,0.66341 -5.33181,2.10292 -5.39735,2.00554 -0.011,-0.016 -0.6693,-0.39397 -1.46332,-0.83983 z"
       id="path3855" />
    <path
       style="fill:#337033;fill-opacity:1;stroke:#4085ff;stroke-width:0;stroke-linecap:round;stroke-miterlimit:4;stroke-opacity:1;stroke-dasharray:none"
       d="m 593.50234,71.061582 c -0.84613,-0.43674 -1.50928,-0.95653 -1.50928,-1.18301 0,-0.23979 0.61335,-0.67385 1.50928,-1.06804 2.81407,-1.23817 3.20111,-1.45934 4.39901,-2.51376 1.47828,-1.30125 1.96659,-2.21322 1.96533,-3.67052 -0.002,-2.48689 -2.3015,-4.66794 -6.29871,-5.9747 -1.20227,-0.39305 -3.17908,-0.67138 -6.69341,-0.94245 -8.4591,-0.65246 -12.32507,-1.47506 -16.64911,-3.54259 -7.36858,-3.52328 -10.25799,-8.39308 -6.49045,-10.939008 1.45034,-0.98006 3.86498,-1.59621 8.02423,-2.04755 5.27504,-0.57242 7.72722,-0.47082 8.9046,0.36892 1.1278,0.80437 2.40467,2.568178 2.40467,3.321678 0,0.7995 -1.46311,1.46462 -3.59893,1.63606 -1.52562,0.12246 -1.85215,0.049 -3.76095,-0.84681 -2.3105,-1.08425 -5.15988,-1.59832 -7.55658,-1.3633 -1.9764,0.19379 -2.67017,0.71192 -2.67017,1.99417 0,1.4125 0.85947,2.34595 3.34444,3.63233 3.82506,1.98011 8.00958,2.87334 15.02965,3.20827 13.32971,0.63596 21.32375,4.53978 21.33404,10.41831 0.004,2.65714 -2.24514,5.77228 -5.84732,8.09644 -1.82963,1.18048 -3.78626,2.22778 -4.1237,2.20724 -0.11403,-0.006 -0.88651,-0.3632 -1.71664,-0.79168 z"
       id="path3853" />
    <path
       style="fill:#333333;fill-opacity:1;stroke:#4085ff;stroke-width:0;stroke-linecap:round;stroke-miterlimit:4;stroke-opacity:1;stroke-dasharray:none"
       d="m 577.81879,32.998722 c -0.36092,-0.149226 -1.09465,-0.698025 -1.63053,-1.219538 l -0.9743,-0.948212 -1.78181,0.819152 c -2.35539,1.082844 -3.6897,1.285855 -4.77218,0.726078 -0.46115,-0.238464 -0.97041,-0.723186 -1.13168,-1.077166 -0.34092,-0.748202 -0.70691,-0.78574 -2.46403,-0.252701 -2.61813,0.79424 -4.48168,0.275068 -5.38776,-1.500996 -0.4712,-0.923618 -0.607,-1.018143 -1.23373,-0.858711 -3.54114,0.900858 -5.81358,0.300949 -5.82675,-1.53821 -0.007,-1.153646 -0.33046,-1.316146 -1.86944,-0.94285 -3.04733,0.739162 -6.26363,0.268488 -6.26363,-0.916617 0,-0.497771 -0.21471,-0.617972 -1.54621,-0.865588 -2.12213,-0.394651 -4.15256,-1.408245 -5.60082,-2.795928 -1.53896,-1.474574 -2.19824,-2.67069 -1.76188,-3.196481 0.44166,-0.532164 1.20372,-0.469068 3.53799,0.292919 6.16187,2.011427 12.24084,0.663492 23.61376,-5.236071 7.69325,-3.990776 9.57054,-4.502491 11.77611,-3.20995 1.71868,1.007219 2.97838,2.60457 4.27101,5.415842 2.22832,4.846235 2.84222,5.512226 5.08106,5.512226 l 1.23278,0 0.17111,3.740437 c 0.094,2.057242 0.17156,4.414486 0.17208,5.238317 l 7.8e-4,1.497881 -2.03427,0.641548 c -2.4512,0.773029 -4.68611,1.043338 -5.57784,0.674619 l -1e-4,0 z"
       id="path3851" />
    <path
       style="fill:#333333;fill-opacity:1;stroke:#4085ff;stroke-width:0;stroke-linecap:round;stroke-miterlimit:4;stroke-opacity:1;stroke-dasharray:none"
       d="m 588.71199,50.150022 c -0.72185,-0.0561 -1.40169,-0.1901 -1.51077,-0.29774 -0.10912,-0.10769 -0.32373,-9.037338 -0.47702,-19.843758 l -0.2787,-19.648059 -0.67152,-0.528218 c -0.8682,-0.682924 -1.64242,-2.401573 -1.64975,-3.662132 -0.0171,-2.930066 2.92114,-5.319793 5.75719,-4.682576 2.2485,0.505204 3.7941,2.468645 3.7641,4.781691 -0.018,1.395599 -0.34475,2.129793 -1.48207,3.33106 l -0.81658,0.862499 -0.19805,14.755471 c -0.1089,8.115502 -0.2293,17.057252 -0.26749,19.870552 -0.0587,4.32813 -0.13003,5.11881 -0.46318,5.13919 -0.21655,0.0131 -0.98432,-0.0218 -1.70616,-0.078 l 0,0 z"
       id="path3849" />
    <path
       style="fill:#333333;fill-opacity:1;stroke:#4085ff;stroke-width:0;stroke-linecap:round;stroke-miterlimit:4;stroke-opacity:1;stroke-dasharray:none"
       d="m 596.3241,32.865187 c -0.8662,-0.20426 -2.07692,-0.558547 -2.69048,-0.7873 l -1.11557,-0.415913 0,-5.228023 0,-5.228031 1.20714,0 c 1.43646,0 2.80483,-0.592961 3.37441,-1.462247 0.22687,-0.346262 0.88894,-1.712255 1.47126,-3.035547 1.46089,-3.319748 2.63053,-4.984162 4.32043,-6.148041 2.49361,-1.717406 3.39408,-1.483545 13.38182,3.475388 11.18482,5.553282 16.10276,6.580643 22.42327,4.684226 2.5454,-0.763732 3.386,-0.825629 3.60105,-0.265181 0.69097,1.800634 -4.12507,5.603401 -7.65501,6.044443 -1.15888,0.144791 -1.35634,0.247074 -1.25142,0.648286 0.16428,0.628212 -0.7707,1.205691 -2.28738,1.412789 -1.06692,0.145683 -2.48949,-0.0035 -4.92163,-0.515358 -0.81231,-0.171031 -0.85308,-0.142092 -0.85308,0.605258 0,0.431677 -0.24162,1.092031 -0.53692,1.467444 -0.79919,1.015998 -2.00695,1.25221 -4.11834,0.805442 -1.74863,-0.370003 -1.78167,-0.366729 -2.16941,0.215151 -1.5281,2.293268 -2.71245,2.687084 -5.72848,1.90483 l -1.80299,-0.46764 -0.93885,1.024468 c -0.84458,0.921595 -1.06609,1.024075 -2.20585,1.020554 -0.88275,-0.0029 -1.84224,-0.272363 -3.16392,-0.889131 l -1.89693,-0.885221 -1.06976,0.966468 c -1.73403,1.5666 -2.53191,1.722942 -5.37336,1.052886 z"
       id="path3103" />
  </g>
</svg>
